Coordinates
version=1
nRows=5
nColumns=63
inDegrees=yes

Units are S.I. units (second, meters, Newtons, ...)
If the header above contains a line with 'inDegrees', this indicates whether rotational values are in degrees (yes) or radians (no).

endheader
time	pelvis_tilt	pelvis_list	pelvis_rotation	pelvis_tx	pelvis_ty	pelvis_tz	hip_flexion_r	hip_adduction_r	hip_rotation_r	knee_angle_r	knee_angle_r_beta	ankle_angle_r	subtalar_angle_r	mtp_angle_r	hip_flexion_l	hip_adduction_l	hip_rotation_l	knee_angle_l	knee_angle_l_beta	ankle_angle_l	subtalar_angle_l	mtp_angle_l	L5_S1_Flex_Ext	L5_S1_Lat_Bending	L5_S1_axial_rotation	L4_L5_Flex_Ext	L4_L5_Lat_Bending	L4_L5_axial_rotation	L3_L4_Flex_Ext	L3_L4_Lat_Bending	L3_L4_axial_rotation	L2_L3_Flex_Ext	L2_L3_Lat_Bending	L2_L3_axial_rotation	L1_L2_Flex_Ext	L1_L2_Lat_Bending	L1_L2_axial_rotation	L1_T12_Flex_Ext	L1_T12_Lat_Bending	L1_T12_axial_rotation	Abs_r3	Abs_r2	Abs_r1	Abs_t1	Abs_t2	neck_flexion	neck_bending	neck_rotation	arm_flex_r	arm_add_r	arm_rot_r	elbow_flex_r	pro_sup_r	wrist_flex_r	wrist_dev_r	arm_flex_l	arm_add_l	arm_rot_l	elbow_flex_l	pro_sup_l	wrist_flex_l	wrist_dev_l
      6.22033898	     -6.82839103	      7.07058248	     95.72538665	      0.26246161	      1.00574348	      0.24397030	     -9.40491483	     -7.32858545	    -21.12764734	     13.22005495	      0.23073349	     26.37927564	     14.61357359	      0.00000000	     -7.92300597	      6.83440659	      1.27917509	     11.04009335	      0.19268598	     16.10028802	    -11.34914501	      0.00000000	     -0.28041655	     -0.42818046	      0.18086993	     -0.52076157	     -0.56948001	      0.19217430	     -0.46069635	     -1.04107797	      0.19217430	     -0.32048807	     -1.04107797	      0.15826118	     -0.26039481	     -0.87314560	      0.14695681	     -0.16023002	     -0.66325154	      0.13565244	     -2.00298737	     -4.84366302	      1.00594426	      0.00000000	      0.00000000	    -22.10454862	     -4.89875507	     15.73434401	     53.16462323	    -19.27150773	     25.05985229	    140.91024355	     87.76673091	     -6.90250662	     23.08787022	     28.33597405	    -23.28484098	     -0.46879226	    149.29617605	     89.05051487	     -7.79662662	     13.61895468
      6.23728814	     -6.83271835	      7.35284625	     95.59579829	      0.26286636	      1.00530677	      0.24417437	     -9.59782896	     -7.35640382	    -21.03078790	     13.40467605	      0.23395573	     26.66948892	     14.58654683	      0.00000000	     -8.06061923	      6.84525576	      1.48767698	     11.26871136	      0.19667612	     16.73427140	    -11.42292141	      0.00000000	     -0.33841920	     -0.42362406	      0.27052219	     -0.62847830	     -0.56342000	      0.28742983	     -0.55598890	     -1.02999954	      0.28742983	     -0.38677930	     -1.02999954	      0.23670692	     -0.31425607	     -0.86385418	      0.21979928	     -0.19337273	     -0.65619367	      0.20289165	     -2.41729451	     -4.79212009	      1.50456329	      0.00000000	      0.00000000	    -22.49589653	     -4.69191121	     15.75189837	     51.55750050	    -19.38966083	     24.40100715	    142.85138380	     87.71605567	     -6.96270979	     22.81837011	     27.36836270	    -23.06660006	     -0.73668602	    149.51517622	     89.08576147	     -7.78160877	     13.14171180
      6.25423729	     -6.64106808	      7.24790609	     95.02194076	      0.26361806	      1.00477073	      0.24411168	     -9.29366804	     -7.27189690	    -20.48205601	     13.50602242	      0.23572456	     26.75084173	     14.58732957	      0.00000000	     -7.77736271	      6.77178798	      1.36568409	     11.42305589	      0.19936994	     17.62922329	    -11.37557160	      0.00000000	     -0.31760937	     -0.42659767	      0.49267511	     -0.58983236	     -0.56737490	      0.52346731	     -0.52180044	     -1.03722957	      0.52346731	     -0.36299575	     -1.03722957	      0.43109072	     -0.29493206	     -0.86991796	      0.40029853	     -0.18148200	     -0.66079978	      0.36950633	     -2.26865198	     -4.82575812	      2.74011117	      0.00000000	      0.00000000	    -23.44616316	     -3.28919321	     14.64344382	     49.05526520	    -19.89904878	     22.89666042	    145.05258887	     87.78413814	     -6.45182048	     22.45471304	     26.52954818	    -22.25786792	     -0.20336849	    149.49586822	     89.14067874	     -7.26574731	     11.58548499
      6.27118644	     -6.57684696	      7.39879300	     94.46450752	      0.26448615	      1.00442180	      0.24451178	     -9.18924388	     -7.27526751	    -19.56102027	     13.71378409	      0.23935069	     26.98642324	     14.14474033	      0.00000000	     -7.71890838	      6.74267514	      0.73522914	     11.63565723	      0.20308053	     18.95040854	    -10.33887572	      0.00000000	     -0.34821536	     -0.44043692	      0.71309228	     -0.64667075	     -0.58578110	      0.75766054	     -0.57208302	     -1.07087832	      0.75766054	     -0.39797534	     -1.07087832	      0.62395574	     -0.32335278	     -0.89813896	      0.57938748	     -0.19897026	     -0.68223678	      0.53481921	     -2.48726750	     -4.98231047	      3.96600532	      0.00000000	      0.00000000	    -24.02773442	     -2.13422460	     13.53979843	     46.75274024	    -20.32654312	     21.21393275	    146.65710324	     87.70224980	     -5.19668484	     21.85237286	     26.02981015	    -21.64307431	      0.32400966	    149.56012238	     89.17828180	     -6.98213784	     10.91515095
      6.28813559	     -6.45655064	      7.47344815	     94.34057953	      0.26465432	      1.00414582	      0.24482786	     -9.19868765	     -7.14410351	    -19.29719847	     13.69958714	      0.23910290	     27.17489220	     14.11998963	      0.00000000	     -7.54744253	      6.63922137	      0.82229430	     11.92149369	      0.20806932	     20.07700479	     -9.88301434	      0.00000000	     -0.36289519	     -0.44117645	      0.81373145	     -0.67393266	     -0.58676468	      0.86458966	     -0.59620051	     -1.07267642	      0.86458966	     -0.41475291	     -1.07267642	      0.71201502	     -0.33698447	     -0.89964701	      0.66115680	     -0.20735831	     -0.68338232	      0.61029859	     -2.59212405	     -4.99067622	      4.52573020	      0.00000000	      0.00000000	    -24.49574393	     -1.25589454	     12.84324493	     44.72859904	    -20.72285830	     20.15341470	    147.71652090	     87.60663434	     -4.96602247	     21.17198671	     25.26991634	    -21.08526554	      0.45151731	    149.60820642	     89.20893908	     -6.31727886	      9.52229793
